<?xml version="1.0" encoding="UTF-8"?>
<svg id="Layer_2" data-name="Layer 2" xmlns="http://www.w3.org/2000/svg" viewBox="0 0 168.98 37.76">
  <defs>
    <style>
      .cls-1 {
        fill: #fff;
        stroke-width: 0px;
      }
    </style>
  </defs>
  <g id="Layer_2-2" data-name="Layer 2">
    <g id="Layer_1-2" data-name="Layer 1-2">
      <g>
        <path class="cls-1" d="M45.71,3.79c.7.62,1.73.53,1.55,1.91-.09.71.81.53,1.33.53,2.14.02,4.28-.02,6.42.02,2.86.06,3.97,1.47,3.44,4.29-1.06,5.65-1.15,5.72-6.93,5.72h-7.87c-1.48,0-2.51-.67-2.99-2.08-.63-1.84.12-2.59,2-2.89,1.83-.3,3.07,1.04,4.63,1.16,2.47.19,4.96.05,7.88.05-1.11-.61-2.27-.63-1.99-2.1.16-.85-.87-.64-1.44-.64-2.14-.03-4.28.02-6.42-.02-2.61-.05-3.75-1.43-3.34-4.02.15-.95.39-1.89.58-2.84C42.98.88,44.16-.04,46.22,0c3.45.06,6.9.04,10.35,0,1.63,0,2.8.57,3.32,2.2.56,1.78-.1,2.8-1.93,2.68-1.23-.08-2.78.76-3.63-.96-.08-.17-.64-.14-.97-.14-2.55,0-5.1,0-7.64,0h0Z"/>
        <path class="cls-1" d="M28.11,33.69c.13.04.26.11.39.11,2.41,0,5.29.79,7.11-.26,1.9-1.09,1.3-4.36,1.96-6.63.23-.79.36-1.61.54-2.42.72-3.24.72-3.16,4-3.22,1.49-.03,1.75.46,1.46,1.78-.87,3.97-1.68,7.95-2.5,11.93-.37,1.82-1.44,2.74-3.32,2.73-3.65-.02-7.31.03-10.96-.02-2.46-.03-3.52-1.3-3.06-3.75.71-3.79,1.61-7.54,2.28-11.34.28-1.58,1.29-1.28,2.26-1.28,3.11-.02,3.12-.01,2.51,2.99-.51,2.5-1.04,4.99-1.57,7.48-.15.72-.05,1.6-1.1,1.91h0Z"/>
        <path class="cls-1" d="M35.1,3.75h-6.2C29.25,1.26,30.62.02,33.01.02h6.52c-1,4.78-1.96,9.36-2.92,13.94-.34,1.6-1.39,2.3-2.96,2.3h-9.52c-1.31,0-2.34-.53-2.76-1.76-.49-1.44.16-2.85.48-4.24.06-.27,4.65-.35,4.87-.11.07.08.1.22.11.34.05.67-.76,1.72.36,1.91,1.4.24,2.89.1,4.32-.02.55-.04.47-.75.57-1.21.33-1.55.75-3.08.98-4.65.19-1.33.55-2.39,2.05-2.77h-.01Z"/>
        <path class="cls-1" d="M108.21,25.25c1.1.45.92,1.32.71,2.24-.65,2.89-1.36,5.77-1.85,8.69-.21,1.26-.7,1.53-1.87,1.54-4.12.02-4.11.07-3.26-4.02.51-2.43.9-4.89,1.49-7.3.25-1.04-.08-1.2-.96-1.16-.69.03-1.38,0-2.07,0-2.9,0-2.83.02-2.18-2.79.23-.99.68-1.17,1.55-1.17,4.9.03,9.8.04,14.7,0,1.05,0,1.27.32,1.13,1.32-.27,1.82-.81,3.06-3.08,2.68-1.41-.23-2.88-.04-4.33-.04h.02Z"/>
        <path class="cls-1" d="M56.14,25.25c1.18.46.88,1.41.7,2.3-.58,2.84-1.24,5.66-1.74,8.51-.24,1.37-.88,1.7-2.21,1.68-3.8-.08-3.81,0-3.08-3.66.48-2.43.92-4.88,1.51-7.28.28-1.16.17-1.7-1.16-1.55-.61.07-1.24.01-1.86.01-2.88,0-2.83.01-2.13-2.77.27-1.05.84-1.2,1.77-1.19,4.69.04,9.38,0,14.08.04.59,0,1.85-.52,1.5.89-.27,1.09.39,2.88-1.59,3-1.92.12-3.85.03-5.78.03h0Z"/>
        <path class="cls-1" d="M93.45,25.54c1.25.19,1.51.67,1.22,1.79-.7,2.73-1.28,5.51-1.69,8.3-.24,1.61-.81,2.18-2.48,2.1-3.1-.14-3.12-.04-2.51-3.02.79-3.84,1.72-7.66,2.38-11.53.27-1.6.94-2.12,2.42-1.89.2.03.43-.04.62.01.78.22,1.9-.63,2.34.53.43,1.14-.88,3.26-2.3,3.7h0Z"/>
        <path class="cls-1" d="M124.52,21.31c-.9,1.5.27,3.78-3.08,4.24,1.97.11,1.94.85,1.72,1.85-.65,2.95-1.23,5.92-1.8,8.89-.19,1-.59,1.44-1.74,1.44-3.76,0-3.77.06-3.02-3.49.78-3.7,1.67-7.38,2.32-11.1.26-1.47.76-2.04,2.24-1.86,1.01.12,2.05.02,3.38.02h-.02Z"/>
        <path class="cls-1" d="M20.02,21.31c-.21,0-.42.03-.62,0-1.56-.28-2.11.4-2.37,1.95-.57,3.42-1.38,6.8-2.1,10.2-1.01-3.5-1.75-6.99-2.45-10.5-.21-1.05-.51-1.71-1.84-1.61-1.99.14-4,.08-6,.02-1.02-.03-1.43.32-1.63,1.35-.76,3.99-1.65,7.96-2.45,11.94-.62,3.04-.59,2.94,2.45,3.08,1.65.08,2.23-.46,2.5-2.06.57-3.32,1.38-6.6,2.1-9.9-.42-.15-.84-.29-1.26-.44-.44.09-.77-.06-1.16-.79.92.09,1.67-.29,2.41.34.27.25.38.54.29.9.6,2.83,1.21,5.65,1.78,8.49.69,3.41.67,3.42,4.07,3.42,1.31,0,2.63-.11,3.93.03,1.29.13,1.65-.49,1.87-1.58.81-4.12,1.69-8.23,2.52-12.35.5-2.49.49-2.49-2.04-2.49Z"/>
        <path class="cls-1" d="M166.87,21.3c-.27.04-.56.05-.83,0-1.56-.27-2.11.4-2.37,1.95-.57,3.42-1.39,6.8-2.1,10.2-1.01-3.5-1.75-7-2.45-10.5-.21-1.06-.52-1.7-1.84-1.61-1.99.14-4,.08-6,.02-1.03-.03-1.43.33-1.63,1.36-.77,3.99-1.64,7.96-2.46,11.94-.63,3.04-.61,2.93,2.45,3.08,1.66.08,2.23-.46,2.5-2.06.57-3.32,1.39-6.6,2.1-9.9-.42-.15-.84-.29-1.26-.44,0,0,0-.01,0-.02,0,0,0,0,0,0-.44.09-.77-.06-1.16-.79.92.09,1.67-.29,2.41.34,0,0-.02,0-.03,0,0,0,.02,0,.03,0,.27.25.37.53.29.88,0,0,0,.01,0,.02.59,2.83,1.21,5.66,1.78,8.49.69,3.42.67,3.42,4.07,3.42,1.31,0,2.63-.11,3.93.03,1.29.13,1.66-.5,1.87-1.58.82-4.19,1.56-8.41,2.61-12.54.52-2.06,0-2.59-1.92-2.31Z"/>
        <path class="cls-1" d="M82.51,21.32c-4.55-.03-9.1.06-13.65-.05-1.37-.03-1.76.53-1.98,1.67-.81,4.05-1.66,8.09-2.5,12.14-.54,2.62-.53,2.48,2.07,2.66,1.93.13,2.93-.36,3.05-2.43.04-.66-.11-1.91.66-2.01,1.83-.24,3.72-.26,5.56-.09,1.1.1.97,1.5,1.5,2.24.59.82.47,2.29,2.03,2.25,1.29-.03,2.57,0,4.07,0-.69-1.57-1.29-2.94-1.94-4.44,3.13-.57,3.42-.86,4.04-3.93.23-1.15.47-2.29.72-3.44.7-3.28-.29-4.55-3.63-4.57ZM78.25,29.19c-1.92,0-3.84-.08-5.76.03-1.36.07-1.92-.28-1.45-1.69.3-.92.83-2-.88-2.27h9.84c.51,0,.88.05.95.74.21,2-.75,3.19-2.7,3.19Z"/>
        <path class="cls-1" d="M142.42,21.34c-3.86-.09-7.72-.05-11.58-.02-1.82.01-2.91.88-3.27,2.77-.62,3.32-1.4,6.6-2.06,9.91-.45,2.24.62,3.6,2.93,3.68,1.93.07,3.86,0,5.79,0s4,.02,6,0c1.63-.02,2.78-.74,3.13-2.42.71-3.37,1.44-6.73,2.09-10.11.46-2.41-.57-3.76-3.03-3.82ZM140.09,26.5c-.38,1.68-.76,3.36-1.1,5.05-.17.84-.59,1.82.78,2.28-2.61,0-5.22-.02-7.83,0-.92,0-1.23-.29-1.02-1.23.38-1.68.57-3.41,1.05-5.06.32-1.11.26-1.81-.93-2.29,2.68,0,5.36.03,8.04-.02,1-.02,1.18.42.99,1.26h.02Z"/>
        <path class="cls-1" d="M16.83.02C14.97,0,13.11.02,11.25.02h-6.2C3.63.02,2.61.74,2.31,2.08,1.48,5.7.7,9.34.06,13c-.34,1.97.76,3.21,2.77,3.24,4.06.07,8.13.04,12.19.01,1.56,0,2.58-.77,2.91-2.37.69-3.37,1.44-6.73,2.08-10.11C20.5,1.19,19.49.05,16.83.01h0ZM6.68,12.52c-1.25.03-1.36-.55-1.16-1.52.32-1.48.54-2.98.94-4.43.37-1.35.62-2.5-1.31-2.78,2.79,0,5.59.03,8.38,0,1.05-.02,1.32.4,1.11,1.37-.36,1.61-.53,3.27-1.03,4.83-.45,1.41-.12,2.07,1.31,2.52-2.75,0-5.5-.05-8.24.02Z"/>
      </g>
    </g>
  </g>
</svg>